<?xml version="1.0" encoding="utf-8"?>
<!-- Generator: Adobe Illustrator 26.0.2, SVG Export Plug-In . SVG Version: 6.00 Build 0)  -->
<svg version="1.1" id="Capa_1" xmlns="http://www.w3.org/2000/svg" xmlns:xlink="http://www.w3.org/1999/xlink" x="0px" y="0px"
	 viewBox="0 0 400 500" style="enable-background:new 0 0 400 500;" xml:space="preserve">
<style type="text/css">
	.st0{opacity:0.5;clip-path:url(#SVGID_00000178922302047921486360000005659560201192965766_);}
	.st1{fill:none;stroke:#3AAA35;stroke-width:0.5428;stroke-miterlimit:10;}
	.st2{opacity:0.9756;fill:none;stroke:#3AAA35;stroke-width:0.5368;stroke-miterlimit:10;}
	.st3{opacity:0.9512;fill:none;stroke:#3AAA35;stroke-width:0.5307;stroke-miterlimit:10;}
	.st4{opacity:0.9268;fill:none;stroke:#3AAA35;stroke-width:0.5246;stroke-miterlimit:10;}
	.st5{opacity:0.9024;fill:none;stroke:#3AAA35;stroke-width:0.5185;stroke-miterlimit:10;}
	.st6{opacity:0.878;fill:none;stroke:#3AAA35;stroke-width:0.5124;stroke-miterlimit:10;}
	.st7{opacity:0.8537;fill:none;stroke:#3AAA35;stroke-width:0.5063;stroke-miterlimit:10;}
	.st8{opacity:0.8293;fill:none;stroke:#3AAA35;stroke-width:0.5003;stroke-miterlimit:10;}
	.st9{opacity:0.8049;fill:none;stroke:#3AAA35;stroke-width:0.4942;stroke-miterlimit:10;}
	.st10{opacity:0.7805;fill:none;stroke:#3AAA35;stroke-width:0.4881;stroke-miterlimit:10;}
	.st11{opacity:0.7561;fill:none;stroke:#3AAA35;stroke-width:0.482;stroke-miterlimit:10;}
	.st12{opacity:0.7317;fill:none;stroke:#3AAA35;stroke-width:0.4759;stroke-miterlimit:10;}
	.st13{opacity:0.7073;fill:none;stroke:#3AAA35;stroke-width:0.4699;stroke-miterlimit:10;}
	.st14{opacity:0.6829;fill:none;stroke:#3AAA35;stroke-width:0.4638;stroke-miterlimit:10;}
	.st15{opacity:0.6585;fill:none;stroke:#3AAA35;stroke-width:0.4577;stroke-miterlimit:10;}
	.st16{opacity:0.6341;fill:none;stroke:#3AAA35;stroke-width:0.4516;stroke-miterlimit:10;}
	.st17{opacity:0.6098;fill:none;stroke:#3AAA35;stroke-width:0.4455;stroke-miterlimit:10;}
	.st18{opacity:0.5854;fill:none;stroke:#3AAA35;stroke-width:0.4394;stroke-miterlimit:10;}
	.st19{opacity:0.561;fill:none;stroke:#3AAA35;stroke-width:0.4334;stroke-miterlimit:10;}
	.st20{opacity:0.5366;fill:none;stroke:#3AAA35;stroke-width:0.4273;stroke-miterlimit:10;}
	.st21{opacity:0.5122;fill:none;stroke:#3AAA35;stroke-width:0.4212;stroke-miterlimit:10;}
	.st22{opacity:0.4878;fill:none;stroke:#3AAA35;stroke-width:0.4151;stroke-miterlimit:10;}
	.st23{opacity:0.4634;fill:none;stroke:#3AAA35;stroke-width:0.409;stroke-miterlimit:10;}
	.st24{opacity:0.439;fill:none;stroke:#3AAA35;stroke-width:0.403;stroke-miterlimit:10;}
	.st25{opacity:0.4146;fill:none;stroke:#3AAA35;stroke-width:0.3969;stroke-miterlimit:10;}
	.st26{opacity:0.3902;fill:none;stroke:#3AAA35;stroke-width:0.3908;stroke-miterlimit:10;}
	.st27{opacity:0.3659;fill:none;stroke:#3AAA35;stroke-width:0.3847;stroke-miterlimit:10;}
	.st28{opacity:0.3415;fill:none;stroke:#3AAA35;stroke-width:0.3786;stroke-miterlimit:10;}
	.st29{opacity:0.3171;fill:none;stroke:#3AAA35;stroke-width:0.3725;stroke-miterlimit:10;}
	.st30{opacity:0.2927;fill:none;stroke:#3AAA35;stroke-width:0.3665;stroke-miterlimit:10;}
	.st31{opacity:0.2683;fill:none;stroke:#3AAA35;stroke-width:0.3604;stroke-miterlimit:10;}
	.st32{opacity:0.2439;fill:none;stroke:#3AAA35;stroke-width:0.3543;stroke-miterlimit:10;}
	.st33{opacity:0.2195;fill:none;stroke:#3AAA35;stroke-width:0.3482;stroke-miterlimit:10;}
	.st34{opacity:0.1951;fill:none;stroke:#3AAA35;stroke-width:0.3421;stroke-miterlimit:10;}
	.st35{opacity:0.1707;fill:none;stroke:#3AAA35;stroke-width:0.3361;stroke-miterlimit:10;}
	.st36{opacity:0.1463;fill:none;stroke:#3AAA35;stroke-width:0.33;stroke-miterlimit:10;}
	.st37{opacity:0.122;fill:none;stroke:#3AAA35;stroke-width:0.3239;stroke-miterlimit:10;}
	.st38{opacity:0.0976;fill:none;stroke:#3AAA35;stroke-width:0.3178;stroke-miterlimit:10;}
	.st39{opacity:0.0732;fill:none;stroke:#3AAA35;stroke-width:0.3117;stroke-miterlimit:10;}
	.st40{opacity:0.0488;fill:none;stroke:#3AAA35;stroke-width:0.3056;stroke-miterlimit:10;}
	.st41{opacity:0.0244;fill:none;stroke:#3AAA35;stroke-width:0.2996;stroke-miterlimit:10;}
	.st42{opacity:0;fill:none;stroke:#3AAA35;stroke-width:0.2935;stroke-miterlimit:10;}
	.st43{opacity:0.9756;fill:none;stroke:#3AAA35;stroke-width:0.5362;stroke-miterlimit:10;}
	.st44{opacity:0.9512;fill:none;stroke:#3AAA35;stroke-width:0.5296;stroke-miterlimit:10;}
	.st45{opacity:0.9268;fill:none;stroke:#3AAA35;stroke-width:0.523;stroke-miterlimit:10;}
	.st46{opacity:0.9024;fill:none;stroke:#3AAA35;stroke-width:0.5164;stroke-miterlimit:10;}
	.st47{opacity:0.878;fill:none;stroke:#3AAA35;stroke-width:0.5097;stroke-miterlimit:10;}
	.st48{opacity:0.8537;fill:none;stroke:#3AAA35;stroke-width:0.5031;stroke-miterlimit:10;}
	.st49{opacity:0.8293;fill:none;stroke:#3AAA35;stroke-width:0.4965;stroke-miterlimit:10;}
	.st50{opacity:0.8049;fill:none;stroke:#3AAA35;stroke-width:0.4899;stroke-miterlimit:10;}
	.st51{opacity:0.7805;fill:none;stroke:#3AAA35;stroke-width:0.4833;stroke-miterlimit:10;}
	.st52{opacity:0.7561;fill:none;stroke:#3AAA35;stroke-width:0.4766;stroke-miterlimit:10;}
	.st53{opacity:0.7317;fill:none;stroke:#3AAA35;stroke-width:0.47;stroke-miterlimit:10;}
	.st54{opacity:0.7073;fill:none;stroke:#3AAA35;stroke-width:0.4634;stroke-miterlimit:10;}
	.st55{opacity:0.6829;fill:none;stroke:#3AAA35;stroke-width:0.4568;stroke-miterlimit:10;}
	.st56{opacity:0.6585;fill:none;stroke:#3AAA35;stroke-width:0.4502;stroke-miterlimit:10;}
	.st57{opacity:0.6341;fill:none;stroke:#3AAA35;stroke-width:0.4435;stroke-miterlimit:10;}
	.st58{opacity:0.6098;fill:none;stroke:#3AAA35;stroke-width:0.4369;stroke-miterlimit:10;}
	.st59{opacity:0.5854;fill:none;stroke:#3AAA35;stroke-width:0.4303;stroke-miterlimit:10;}
	.st60{opacity:0.561;fill:none;stroke:#3AAA35;stroke-width:0.4237;stroke-miterlimit:10;}
	.st61{opacity:0.5366;fill:none;stroke:#3AAA35;stroke-width:0.4171;stroke-miterlimit:10;}
	.st62{opacity:0.5122;fill:none;stroke:#3AAA35;stroke-width:0.4104;stroke-miterlimit:10;}
	.st63{opacity:0.4878;fill:none;stroke:#3AAA35;stroke-width:0.4038;stroke-miterlimit:10;}
	.st64{opacity:0.4634;fill:none;stroke:#3AAA35;stroke-width:0.3972;stroke-miterlimit:10;}
	.st65{opacity:0.439;fill:none;stroke:#3AAA35;stroke-width:0.3906;stroke-miterlimit:10;}
	.st66{opacity:0.4146;fill:none;stroke:#3AAA35;stroke-width:0.384;stroke-miterlimit:10;}
	.st67{opacity:0.3902;fill:none;stroke:#3AAA35;stroke-width:0.3773;stroke-miterlimit:10;}
	.st68{opacity:0.3659;fill:none;stroke:#3AAA35;stroke-width:0.3707;stroke-miterlimit:10;}
	.st69{opacity:0.3415;fill:none;stroke:#3AAA35;stroke-width:0.3641;stroke-miterlimit:10;}
	.st70{opacity:0.3171;fill:none;stroke:#3AAA35;stroke-width:0.3575;stroke-miterlimit:10;}
	.st71{opacity:0.2927;fill:none;stroke:#3AAA35;stroke-width:0.3509;stroke-miterlimit:10;}
	.st72{opacity:0.2683;fill:none;stroke:#3AAA35;stroke-width:0.3442;stroke-miterlimit:10;}
	.st73{opacity:0.2439;fill:none;stroke:#3AAA35;stroke-width:0.3376;stroke-miterlimit:10;}
	.st74{opacity:0.2195;fill:none;stroke:#3AAA35;stroke-width:0.331;stroke-miterlimit:10;}
	.st75{opacity:0.1951;fill:none;stroke:#3AAA35;stroke-width:0.3244;stroke-miterlimit:10;}
	.st76{opacity:0.1707;fill:none;stroke:#3AAA35;stroke-width:0.3178;stroke-miterlimit:10;}
	.st77{opacity:0.1463;fill:none;stroke:#3AAA35;stroke-width:0.3111;stroke-miterlimit:10;}
	.st78{opacity:0.122;fill:none;stroke:#3AAA35;stroke-width:0.3045;stroke-miterlimit:10;}
	.st79{opacity:0.0976;fill:none;stroke:#3AAA35;stroke-width:0.2979;stroke-miterlimit:10;}
	.st80{opacity:0.0732;fill:none;stroke:#3AAA35;stroke-width:0.2913;stroke-miterlimit:10;}
	.st81{opacity:0.0488;fill:none;stroke:#3AAA35;stroke-width:0.2847;stroke-miterlimit:10;}
	.st82{opacity:0.0244;fill:none;stroke:#3AAA35;stroke-width:0.278;stroke-miterlimit:10;}
	.st83{opacity:0;fill:none;stroke:#3AAA35;stroke-width:0.2714;stroke-miterlimit:10;}
</style>
<g>
	<defs>
		<rect id="SVGID_1_" x="-0.73" y="2.71" width="402.76" height="497.32"/>
	</defs>
	<clipPath id="SVGID_00000149356057873963897510000002614341183124104343_">
		<use xlink:href="#SVGID_1_"  style="overflow:visible;"/>
	</clipPath>
	
		<g id="XMLID_00000059274953159123084600000014466649466423299463_" style="opacity:0.5;clip-path:url(#SVGID_00000149356057873963897510000002614341183124104343_);">
		<path id="XMLID_00000084489987262321666310000012704684530686895512_" class="st1" d="M623.99,403.1c0,0-82.81-36.05-214.76-36.05
			c-131.95,0-167.44,47.54-333.96,47.54S-125.83,311.2-349.69,311.2"/>
		<path class="st2" d="M623.99,404.68c0,0-86.9-39.87-218.85-39.87c-131.95,0-163.34,54.36-329.87,54.36
			s-201.11-103.62-424.96-103.62"/>
		<path class="st3" d="M623.99,406.27c0,0-91-43.7-222.95-43.7c-131.95,0-159.25,61.18-325.77,61.18s-201.11-103.86-424.96-103.86"
			/>
		<path class="st4" d="M623.99,407.85c0,0-95.09-47.52-227.04-47.52c-131.95,0-155.15,67.99-321.68,67.99
			s-201.11-104.09-424.96-104.09"/>
		<path class="st5" d="M623.99,409.44c0,0-99.19-51.34-231.14-51.34c-131.95,0-151.06,74.81-317.58,74.81
			s-201.11-104.33-424.96-104.33"/>
		<path class="st6" d="M623.99,411.03c0,0-103.28-55.17-235.23-55.17c-131.95,0-146.96,81.63-313.49,81.63
			s-201.11-104.57-424.96-104.57"/>
		<path class="st7" d="M623.99,412.61c0,0-107.38-58.99-239.33-58.99c-131.95,0-142.87,88.45-309.39,88.45
			s-201.11-104.8-424.96-104.8"/>
		<path class="st8" d="M623.99,414.2c0,0-111.47-62.81-243.42-62.81c-131.95,0-138.77,95.27-305.3,95.27
			s-201.11-105.04-424.96-105.04"/>
		<path class="st9" d="M623.99,415.78c0,0-115.57-66.64-247.52-66.64c-131.95,0-134.68,102.09-301.2,102.09
			s-201.11-105.28-424.96-105.28"/>
		<path class="st10" d="M623.99,417.37c0,0-119.66-70.46-251.61-70.46c-131.95,0-130.58,108.91-297.11,108.91
			S-125.83,350.3-349.69,350.3"/>
		<path class="st11" d="M623.99,418.96c0,0-123.76-74.28-255.71-74.28S241.8,460.4,75.27,460.4s-201.11-105.75-424.96-105.75"/>
		<path class="st12" d="M623.99,420.54c0,0-127.85-78.11-259.8-78.11S241.8,464.98,75.27,464.98s-201.11-105.99-424.96-105.99"/>
		<path class="st13" d="M623.99,422.13c0,0-131.95-81.93-263.89-81.93S241.8,469.56,75.27,469.56s-201.11-106.23-424.96-106.23"/>
		<path class="st14" d="M623.99,423.72c0,0-136.04-85.75-267.99-85.75S241.8,474.15,75.27,474.15s-201.11-106.46-424.96-106.46"/>
		<path class="st15" d="M623.99,425.3c0,0-140.14-89.58-272.08-89.58s-110.11,143-276.63,143s-201.11-106.7-424.96-106.7"/>
		<path class="st16" d="M623.99,426.89c0,0-144.23-93.4-276.18-93.4S241.8,483.31,75.27,483.31s-201.11-106.94-424.96-106.94"/>
		<path class="st17" d="M623.99,428.47c0,0-148.33-97.22-280.27-97.22S241.8,487.89,75.27,487.89s-201.11-107.17-424.96-107.17"/>
		<path class="st18" d="M623.99,430.06c0,0-152.42-101.05-284.37-101.05S241.8,492.47,75.27,492.47s-201.11-107.41-424.96-107.41"/>
		<path class="st19" d="M623.99,431.65c0,0-156.52-104.87-288.46-104.87S241.8,497.05,75.27,497.05s-201.11-107.65-424.96-107.65"/>
		<path class="st20" d="M623.99,433.23c0,0-160.61-108.69-292.56-108.69s-89.63,177.1-256.16,177.1s-201.11-107.89-424.96-107.89"/>
		<path class="st21" d="M623.99,434.82c0,0-164.71-112.51-296.65-112.51S241.8,506.22,75.27,506.22S-125.83,398.1-349.69,398.1"/>
		<path class="st22" d="M623.99,436.4c0,0-168.8-116.34-300.75-116.34S241.8,510.8,75.27,510.8s-201.11-108.36-424.96-108.36"/>
		<path class="st23" d="M623.99,437.99c0,0-172.9-120.16-304.84-120.16S241.8,515.38,75.27,515.38s-201.11-108.6-424.96-108.6"/>
		<path class="st24" d="M623.99,439.58c0,0-176.99-123.98-308.94-123.98S241.8,519.96,75.27,519.96s-201.11-108.83-424.96-108.83"/>
		<path class="st25" d="M623.99,441.16c0,0-181.09-127.81-313.03-127.81S241.8,524.54,75.27,524.54s-201.11-109.07-424.96-109.07"/>
		<path class="st26" d="M623.99,442.75c0,0-185.18-131.63-317.13-131.63S241.8,529.13,75.27,529.13s-201.11-109.31-424.96-109.31"/>
		<path class="st27" d="M623.99,444.34c0,0-189.28-135.45-321.22-135.45S241.8,533.71,75.27,533.71s-201.11-109.54-424.96-109.54"/>
		<path class="st28" d="M623.99,445.92c0,0-193.37-139.28-325.32-139.28S241.8,538.29,75.27,538.29s-201.11-109.78-424.96-109.78"/>
		<path class="st29" d="M623.99,447.51c0,0-197.47-143.1-329.41-143.1S241.8,542.87,75.27,542.87s-201.11-110.02-424.96-110.02"/>
		<path class="st30" d="M623.99,449.09c0,0-201.56-146.92-333.51-146.92S241.8,547.45,75.27,547.45S-125.83,437.2-349.69,437.2"/>
		<path class="st31" d="M623.99,450.68c0,0-205.66-150.75-337.6-150.75s-44.59,252.1-211.12,252.1s-201.11-110.49-424.96-110.49"/>
		<path class="st32" d="M623.99,452.27c0,0-209.75-154.57-341.7-154.57S241.8,556.62,75.27,556.62s-201.11-110.73-424.96-110.73"/>
		<path class="st33" d="M623.99,453.85c0,0-213.85-158.39-345.79-158.39S241.8,561.2,75.27,561.2s-201.11-110.97-424.96-110.97"/>
		<path class="st34" d="M623.99,455.44c0,0-217.94-162.22-349.89-162.22S241.8,565.78,75.27,565.78s-201.11-111.2-424.96-111.2"/>
		<path class="st35" d="M623.99,457.02c0,0-222.04-166.04-353.98-166.04S241.8,570.36,75.27,570.36s-201.11-111.44-424.96-111.44"/>
		<path class="st36" d="M623.99,458.61c0,0-226.13-169.86-358.08-169.86s-24.11,286.2-190.64,286.2s-201.11-111.68-424.96-111.68"/>
		<path class="st37" d="M623.99,460.2c0,0-230.23-173.69-362.17-173.69S241.8,579.53,75.27,579.53s-201.11-111.92-424.96-111.92"/>
		<path class="st38" d="M623.99,461.78c0,0-234.32-177.51-366.27-177.51S241.8,584.11,75.27,584.11s-201.11-112.15-424.96-112.15"/>
		<path class="st39" d="M623.99,463.37c0,0-238.42-181.33-370.36-181.33S241.8,588.69,75.27,588.69S-125.83,476.3-349.69,476.3"/>
		<path class="st40" d="M623.99,464.96c0,0-242.51-185.16-374.46-185.16S241.8,593.27,75.27,593.27s-201.11-112.63-424.96-112.63"/>
		<path class="st41" d="M623.99,466.54c0,0-246.61-188.98-378.55-188.98S241.8,597.85,75.27,597.85s-201.11-112.86-424.96-112.86"/>
		<path id="XMLID_00000040575172836929296230000012583709628399961271_" class="st42" d="M623.99,468.13
			c0,0-250.7-192.8-382.65-192.8s0.45,327.11-166.07,327.11s-201.11-113.1-424.96-113.1"/>
	</g>
	
		<g id="XMLID_00000001634962492869011340000006891415963249900420_" style="opacity:0.5;clip-path:url(#SVGID_00000149356057873963897510000002614341183124104343_);">
		<path id="XMLID_00000158730291073384195410000000218342385735661716_" class="st1" d="M-1015.81,93.8
			c0,0,121.5,61.84,315.09,61.84c193.6,0,245.67-81.55,490-81.55S84.35,251.44,412.79,251.44"/>
		<path class="st43" d="M-1015.81,91.08c0,0,127.51,68.4,321.1,68.4c193.6,0,239.66-93.24,483.99-93.24S84.35,243.98,412.79,243.98"
			/>
		<path class="st44" d="M-1015.81,88.36c0,0,133.51,74.96,327.11,74.96c193.6,0,233.65-104.94,477.98-104.94
			S84.35,236.53,412.79,236.53"/>
		<path class="st45" d="M-1015.81,85.64c0,0,139.52,81.52,333.12,81.52c193.6,0,227.64-116.64,471.97-116.64
			S84.35,229.08,412.79,229.08"/>
		<path class="st46" d="M-1015.81,82.92c0,0,145.53,88.08,339.13,88.08c193.6,0,221.63-128.33,465.96-128.33
			S84.35,221.62,412.79,221.62"/>
		<path class="st47" d="M-1015.81,80.19c0,0,151.54,94.63,345.13,94.63c193.6,0,215.63-140.03,459.96-140.03
			S84.35,214.17,412.79,214.17"/>
		<path class="st48" d="M-1015.81,77.47c0,0,157.55,101.19,351.14,101.19c193.6,0,209.62-151.73,453.95-151.73
			S84.35,206.72,412.79,206.72"/>
		<path class="st49" d="M-1015.81,74.75c0,0,163.55,107.75,357.15,107.75c193.6,0,203.61-163.43,447.94-163.43
			S84.35,199.26,412.79,199.26"/>
		<path class="st50" d="M-1015.81,72.03c0,0,169.56,114.31,363.16,114.31c193.6,0,197.6-175.12,441.93-175.12
			S84.35,191.81,412.79,191.81"/>
		<path class="st51" d="M-1015.81,69.31c0,0,175.57,120.87,369.17,120.87c193.6,0,191.59-186.82,435.92-186.82
			s295.07,181,623.51,181"/>
		<path class="st52" d="M-1015.81,66.59c0,0,181.58,127.43,375.17,127.43c193.6,0,185.58-198.52,429.92-198.52
			S84.35,176.91,412.79,176.91"/>
		<path class="st53" d="M-1015.81,63.87c0,0,187.59,133.98,381.18,133.98c193.6,0,179.58-210.21,423.91-210.21
			S84.35,169.45,412.79,169.45"/>
		<path class="st54" d="M-1015.81,61.15c0,0,193.6,140.54,387.19,140.54c193.6,0,173.57-221.91,417.9-221.91S84.35,162,412.79,162"
			/>
		<path class="st55" d="M-1015.81,58.43c0,0,199.6,147.1,393.2,147.1c193.6,0,167.56-233.61,411.89-233.61
			S84.35,154.55,412.79,154.55"/>
		<path class="st56" d="M-1015.81,55.71c0,0,205.61,153.66,399.21,153.66c193.6,0,161.55-245.31,405.88-245.31
			S84.35,147.09,412.79,147.09"/>
		<path class="st57" d="M-1015.81,52.99c0,0,211.62,160.22,405.22,160.22c193.6,0,155.54-257,399.87-257S84.35,139.64,412.79,139.64
			"/>
		<path class="st58" d="M-1015.81,50.26c0,0,217.63,166.78,411.22,166.78c193.6,0,149.54-268.7,393.87-268.7
			S84.35,132.19,412.79,132.19"/>
		<path class="st59" d="M-1015.81,47.54c0,0,223.64,173.33,417.23,173.33c193.6,0,143.53-280.4,387.86-280.4
			S84.35,124.74,412.79,124.74"/>
		<path class="st60" d="M-1015.81,44.82c0,0,229.64,179.89,423.24,179.89c193.6,0,137.52-292.09,381.85-292.09
			S84.35,117.28,412.79,117.28"/>
		<path class="st61" d="M-1015.81,42.1c0,0,235.65,186.45,429.25,186.45c193.6,0,131.51-303.79,375.84-303.79
			S84.35,109.83,412.79,109.83"/>
		<path class="st62" d="M-1015.81,39.38c0,0,241.66,193.01,435.26,193.01c193.6,0,125.5-315.49,369.83-315.49
			S84.35,102.38,412.79,102.38"/>
		<path class="st63" d="M-1015.81,36.66c0,0,247.67,199.57,441.26,199.57c193.6,0,119.5-327.18,363.83-327.18
			S84.35,94.92,412.79,94.92"/>
		<path class="st64" d="M-1015.81,33.94c0,0,253.68,206.13,447.27,206.13c193.6,0,113.49-338.88,357.82-338.88
			S84.35,87.47,412.79,87.47"/>
		<path class="st65" d="M-1015.81,31.22c0,0,259.68,212.68,453.28,212.68c193.6,0,107.48-350.58,351.81-350.58
			S84.35,80.02,412.79,80.02"/>
		<path class="st66" d="M-1015.81,28.5c0,0,265.69,219.24,459.29,219.24c193.6,0,101.47-362.28,345.8-362.28
			S84.35,72.56,412.79,72.56"/>
		<path class="st67" d="M-1015.81,25.78c0,0,271.7,225.8,465.3,225.8c193.6,0,95.46-373.97,339.79-373.97S84.35,65.11,412.79,65.11"
			/>
		<path class="st68" d="M-1015.81,23.06c0,0,277.71,232.36,471.3,232.36c193.6,0,89.45-385.67,333.79-385.67
			S84.35,57.66,412.79,57.66"/>
		<path class="st69" d="M-1015.81,20.33c0,0,283.72,238.92,477.31,238.92c193.6,0,83.45-397.37,327.78-397.37
			S84.35,50.21,412.79,50.21"/>
		<path class="st70" d="M-1015.81,17.61c0,0,289.73,245.48,483.32,245.48c193.6,0,77.44-409.06,321.77-409.06
			S84.35,42.75,412.79,42.75"/>
		<path class="st71" d="M-1015.81,14.89c0,0,295.73,252.03,489.33,252.03c193.6,0,71.43-420.76,315.76-420.76
			S84.35,35.3,412.79,35.3"/>
		<path class="st72" d="M-1015.81,12.17c0,0,301.74,258.59,495.34,258.59c193.6,0,65.42-432.46,309.75-432.46
			S84.35,27.85,412.79,27.85"/>
		<path class="st73" d="M-1015.81,9.45c0,0,307.75,265.15,501.35,265.15c193.6,0,59.41-444.15,303.74-444.15
			S84.35,20.39,412.79,20.39"/>
		<path class="st74" d="M-1015.81,6.73c0,0,313.76,271.71,507.35,271.71c193.6,0,53.41-455.85,297.74-455.85
			S84.35,12.94,412.79,12.94"/>
		<path class="st75" d="M-1015.81,4.01c0,0,319.77,278.27,513.36,278.27c193.6,0,47.4-467.55,291.73-467.55S84.35,5.49,412.79,5.49"
			/>
		<path class="st76" d="M-1015.81,1.29c0,0,325.77,284.83,519.37,284.83c193.6,0,41.39-479.25,285.72-479.25S84.35-1.97,412.79-1.97
			"/>
		<path class="st77" d="M-1015.81-1.43c0,0,331.78,291.38,525.38,291.38c193.6,0,35.38-490.94,279.71-490.94S84.35-9.42,412.79-9.42
			"/>
		<path class="st78" d="M-1015.81-4.15c0,0,337.79,297.94,531.39,297.94c193.6,0,29.37-502.64,273.7-502.64
			S84.35-16.87,412.79-16.87"/>
		<path class="st79" d="M-1015.81-6.88c0,0,343.8,304.5,537.39,304.5c193.6,0,23.36-514.34,267.7-514.34S84.35-24.32,412.79-24.32"
			/>
		<path class="st80" d="M-1015.81-9.6c0,0,349.81,311.06,543.4,311.06c193.6,0,17.36-526.03,261.69-526.03S84.35-31.78,412.79-31.78
			"/>
		<path class="st81" d="M-1015.81-12.32c0,0,355.82,317.62,549.41,317.62c193.6,0,11.35-537.73,255.68-537.73
			S84.35-39.23,412.79-39.23"/>
		<path class="st82" d="M-1015.81-15.04c0,0,361.82,324.18,555.42,324.18c193.6,0,5.34-549.43,249.67-549.43
			S84.35-46.68,412.79-46.68"/>
		<path id="XMLID_00000018214621666583363060000013012428105291450787_" class="st83" d="M-1015.81-17.76
			c0,0,367.83,330.73,561.43,330.73c193.6,0-0.67-561.13,243.66-561.13S84.35-54.14,412.79-54.14"/>
	</g>
</g>
</svg>
